<?xml version="1.0" encoding="UTF-8"?>
<svg width="24px" height="24px" viewBox="0 0 24 24" version="1.1" xmlns="http://www.w3.org/2000/svg" xmlns:xlink="http://www.w3.org/1999/xlink">
    <!-- Generator: Sketch 60 (88103) - https://sketch.com -->
    <title>mp3</title>
    <desc>Created with Sketch.</desc>
    <defs>
        <path d="M3.375,0 L20.625,0 C22.488961,0 24,1.51103897 24,3.375 L24,20.625 C24,22.488961 22.488961,24 20.625,24 L3.375,24 C1.51103897,24 0,22.488961 0,20.625 L0,3.375 C0,1.51103897 1.51103897,0 3.375,0 Z" id="path-1"></path>
    </defs>
    <g id="0514-外评修改" stroke="none" stroke-width="1" fill="none" fill-rule="evenodd">
        <g id="icon切图" transform="translate(-517.000000, -188.000000)">
            <g id="合并形状-copy-+-矩形-copy-Mask" transform="translate(517.000000, 188.000000)">
                <mask id="mask-2" fill="white">
                    <use xlink:href="#path-1"></use>
                </mask>
                <use id="Mask" fill="#F8E3FF" fill-rule="nonzero" xlink:href="#path-1"></use>
                <path d="M18.6645779,7.0026356 L18.6637955,7.0376356 L18.7109375,7.02948399 L18.7109375,21.6554621 L16.5211893,22.0674379 L16.5207955,14.5116356 L8.26679552,15.6856356 L8.26690328,23.0028659 L6.07715513,23.4148417 L6.07679552,11.4716356 L6.03079552,11.4794301 L6.03079552,8.79917404 L18.6645779,7.0026356 Z M16.5207955,9.9876356 L8.26679552,11.1606356 L8.26679552,13.0056356 L16.5207955,11.8316356 L16.5207955,9.9876356 Z" id="合并形状" fill="#CA5EEB" fill-rule="nonzero" mask="url(#mask-2)"></path>
                <path d="M15.9122845,24.3498237 C14.1893992,24.6214489 12.6189156,23.7492966 12.4045113,22.401817 C12.190107,21.0543374 13.4129725,19.7417937 15.1358578,19.4701685 C16.8587432,19.1985433 18.4292267,20.0706956 18.6436311,21.4181752 C18.8580354,22.7656547 17.6351699,24.0781985 15.9122845,24.3498237 Z" id="椭圆形" fill="#DC81F7" fill-rule="nonzero" mask="url(#mask-2)"></path>
                <path d="M5.52410035,25.8813332 C3.801215,26.1529584 2.23073142,25.2808061 2.01632709,23.9333266 C1.80192277,22.585847 3.02478826,21.2733032 4.74767361,21.001678 C6.47055896,20.7300528 8.04104254,21.6022051 8.25544687,22.9496847 C8.46985119,24.2971643 7.2469857,25.609708 5.52410035,25.8813332 Z" id="椭圆形-copy" fill="#DC81F7" fill-rule="nonzero" mask="url(#mask-2)"></path>
            </g>
        </g>
    </g>
</svg>